<?xml version="1.0" encoding="UTF-8"?>
<!DOCTYPE svg PUBLIC "-//W3C//DTD SVG 1.1//EN" "http://www.w3.org/Graphics/SVG/1.1/DTD/svg11.dtd">
<svg xmlns="http://www.w3.org/2000/svg" version="1.1" width="635px" height="538px" style="shape-rendering:geometricPrecision; text-rendering:geometricPrecision; image-rendering:optimizeQuality; fill-rule:evenodd; clip-rule:evenodd" xmlns:xlink="http://www.w3.org/1999/xlink">
<g><path style="opacity:0.973" fill="#e4d260" d="M 384.5,37.5 C 384.421,40.2706 384.921,42.9373 386,45.5C 389.06,48.6135 392.56,51.1135 396.5,53C 415.202,63.0058 433.869,73.0058 452.5,83C 457.965,85.1187 463.631,85.952 469.5,85.5C 470.486,92.4745 474.153,97.4745 480.5,100.5C 476.151,103.117 471.651,105.45 467,107.5C 468.186,110.652 468.519,113.985 468,117.5C 467.311,118.357 466.478,119.023 465.5,119.5C 459.824,113.632 453.157,111.299 445.5,112.5C 442.615,112.194 439.948,112.527 437.5,113.5C 433.584,114.039 430.584,112.706 428.5,109.5C 428.727,107.067 427.727,105.401 425.5,104.5C 425.5,103.833 425.167,103.5 424.5,103.5C 424.5,102.833 424.167,102.5 423.5,102.5C 423.167,102.5 422.833,102.5 422.5,102.5C 422.5,101.833 422.167,101.5 421.5,101.5C 420.167,101.5 418.833,101.5 417.5,101.5C 416.833,101.167 416.167,100.833 415.5,100.5C 413.704,98.1 411.37,96.4333 408.5,95.5C 408.158,94.6618 407.492,94.3284 406.5,94.5C 405.432,93.5655 404.099,93.2322 402.5,93.5C 401.833,93.5 401.167,93.5 400.5,93.5C 400.672,92.5084 400.338,91.8417 399.5,91.5C 397.218,87.1885 393.552,85.1885 388.5,85.5C 387.833,85.1667 387.167,84.8333 386.5,84.5C 386.5,83.8333 386.167,83.5 385.5,83.5C 385.5,82.8333 385.167,82.5 384.5,82.5C 384.5,81.8333 384.167,81.5 383.5,81.5C 383.5,80.8333 383.167,80.5 382.5,80.5C 382.158,79.6618 381.492,79.3284 380.5,79.5C 380.5,78.8333 380.167,78.5 379.5,78.5C 379.5,77.8333 379.167,77.5 378.5,77.5C 378.167,77.5 377.833,77.5 377.5,77.5C 377.5,76.8333 377.167,76.5 376.5,76.5C 372.072,73.121 367.072,71.121 361.5,70.5C 360.833,70.5 360.167,70.5 359.5,70.5C 355.005,65.2288 349.338,61.3955 342.5,59C 341.251,58.2599 340.251,58.4265 339.5,59.5C 334.963,59.7356 331.963,57.7356 330.5,53.5C 330.5,52.8333 330.167,52.5 329.5,52.5C 329.5,51.8333 329.167,51.5 328.5,51.5C 328.5,50.8333 328.167,50.5 327.5,50.5C 327.5,49.8333 327.167,49.5 326.5,49.5C 326.5,48.8333 326.167,48.5 325.5,48.5C 325.5,48.1667 325.5,47.8333 325.5,47.5C 324.205,46.5116 322.872,45.5116 321.5,44.5C 321.167,44.5 320.833,44.5 320.5,44.5C 319.432,43.5655 318.099,43.2322 316.5,43.5C 314.929,45.6351 313.596,47.9684 312.5,50.5C 311.781,52.8881 310.115,54.3881 307.5,55C 305.19,55.4966 302.857,55.6633 300.5,55.5C 290.926,57.6153 282.926,62.2819 276.5,69.5C 274.649,73.2566 271.649,75.2566 267.5,75.5C 266.849,74.9094 266.182,74.2427 265.5,73.5C 264.583,74.1272 263.583,74.4606 262.5,74.5C 261.833,74.5 261.5,74.8333 261.5,75.5C 261.167,75.5 260.833,75.5 260.5,75.5C 259.833,75.5 259.5,75.8333 259.5,76.5C 258.833,76.5 258.5,76.8333 258.5,77.5C 257.833,77.5 257.5,77.8333 257.5,78.5C 256.662,78.8417 256.328,79.5084 256.5,80.5C 255.833,80.5 255.5,80.8333 255.5,81.5C 253.996,83.8356 251.996,85.669 249.5,87C 244.675,88.8947 239.675,89.728 234.5,89.5C 242.708,87.5693 244.374,83.0693 239.5,76C 245.608,74.3068 251.608,72.3068 257.5,70C 260.167,67.6667 260.167,65.3333 257.5,63C 236.418,59.7626 215.752,61.5959 195.5,68.5C 228.455,45.1786 263.788,25.6786 301.5,10C 313.833,9.33333 326.167,9.33333 338.5,10C 355.023,17.4179 370.357,26.5846 384.5,37.5 Z"/></g>
<g><path style="opacity:1" fill="#f3cf43" d="M 313.5,11.5 C 315.527,11.3379 317.527,11.5045 319.5,12C 330.417,15.8058 341.417,19.3058 352.5,22.5C 351.784,27.3514 353.117,31.5181 356.5,35C 365.476,38.4855 373.476,43.4855 380.5,50C 374.006,55.8094 367.339,55.9761 360.5,50.5C 361.711,49.1255 362.711,47.6255 363.5,46C 363.333,44.5 362.5,43.6667 361,43.5C 357.439,45.0548 354.439,47.3882 352,50.5C 341.469,45.3589 330.303,42.6922 318.5,42.5C 301.859,47.328 285.192,52.1613 268.5,57C 261.923,58.5906 259.756,56.0906 262,49.5C 264.024,45.8811 266.191,45.7144 268.5,49C 270.167,49.6667 271.833,49.6667 273.5,49C 273.845,46.2702 274.011,43.4369 274,40.5C 274.465,39.0692 275.299,37.9025 276.5,37C 280.031,35.4113 283.698,34.2446 287.5,33.5C 292.285,21.368 300.951,14.0346 313.5,11.5 Z"/></g>
<g><path style="opacity:0.897" fill="#b2af6c" d="M 384.5,37.5 C 409.017,48.0913 432.684,60.258 455.5,74C 460.35,77.3634 465.017,80.8634 469.5,84.5C 469.5,84.8333 469.5,85.1667 469.5,85.5C 463.631,85.952 457.965,85.1187 452.5,83C 433.869,73.0058 415.202,63.0058 396.5,53C 392.56,51.1135 389.06,48.6135 386,45.5C 384.921,42.9373 384.421,40.2706 384.5,37.5 Z"/></g>
<g><path style="opacity:0.021" fill="#1e1a0c" d="M 316.5,43.5 C 317.568,44.4345 318.901,44.7678 320.5,44.5C 320.833,45.8333 321.167,45.8333 321.5,44.5C 322.872,45.5116 324.205,46.5116 325.5,47.5C 324.167,47.8333 324.167,48.1667 325.5,48.5C 326.167,48.5 326.5,48.8333 326.5,49.5C 327.167,49.5 327.5,49.8333 327.5,50.5C 328.167,50.5 328.5,50.8333 328.5,51.5C 329.167,51.5 329.5,51.8333 329.5,52.5C 330.167,52.5 330.5,52.8333 330.5,53.5C 324.272,54.3235 318.272,53.3235 312.5,50.5C 313.596,47.9684 314.929,45.6351 316.5,43.5 Z"/></g>
<g><path style="opacity:0.049" fill="#151209" d="M 300.5,55.5 C 300.918,56.2216 301.584,56.7216 302.5,57C 295.038,64.2356 286.371,68.4023 276.5,69.5C 282.926,62.2819 290.926,57.6153 300.5,55.5 Z"/></g>
<g><path style="opacity:0.13" fill="#19180c" d="M 339.5,59.5 C 340.251,58.4265 341.251,58.2599 342.5,59C 349.338,61.3955 355.005,65.2288 359.5,70.5C 350.444,70.9756 343.777,67.309 339.5,59.5 Z"/></g>
<g><path style="opacity:0.98" fill="#f1e771" d="M 234.5,89.5 C 234.5,89.8333 234.5,90.1667 234.5,90.5C 234.167,90.5 233.833,90.5 233.5,90.5C 232.833,90.5 232.5,90.8333 232.5,91.5C 231.508,91.3284 230.842,91.6618 230.5,92.5C 229.833,92.5 229.5,92.8333 229.5,93.5C 228.833,93.5 228.5,93.8333 228.5,94.5C 228.5,94.8333 228.5,95.1667 228.5,95.5C 227.833,95.5 227.5,95.8333 227.5,96.5C 227.5,97.1667 227.167,97.5 226.5,97.5C 222.285,98.2382 218.285,99.5715 214.5,101.5C 213.833,101.5 213.5,101.833 213.5,102.5C 213.167,102.5 212.833,102.5 212.5,102.5C 211.833,102.5 211.5,102.833 211.5,103.5C 211.167,103.5 210.833,103.5 210.5,103.5C 209.833,103.5 209.5,103.833 209.5,104.5C 208.833,104.5 208.5,104.833 208.5,105.5C 208.167,105.5 207.833,105.5 207.5,105.5C 206.833,105.5 206.5,105.833 206.5,106.5C 205.833,106.5 205.5,106.833 205.5,107.5C 204.833,107.5 204.5,107.833 204.5,108.5C 203.391,108.557 202.391,108.89 201.5,109.5C 200.209,109.263 199.209,109.596 198.5,110.5C 196.216,110.975 194.216,111.975 192.5,113.5C 191.833,113.5 191.5,113.833 191.5,114.5C 190.508,114.328 189.842,114.662 189.5,115.5C 188.833,115.5 188.5,115.833 188.5,116.5C 187.508,116.328 186.842,116.662 186.5,117.5C 185.833,117.5 185.5,117.833 185.5,118.5C 184.833,118.5 184.5,118.833 184.5,119.5C 183.833,119.5 183.5,119.833 183.5,120.5C 182.833,120.5 182.5,120.833 182.5,121.5C 181.833,121.5 181.5,121.833 181.5,122.5C 175.332,126.502 170.332,131.669 166.5,138C 152.507,139.722 138.507,140.222 124.5,139.5C 123.438,127.15 124.938,115.15 129,103.5C 143.374,94.8968 158.207,87.2302 173.5,80.5C 181.408,80.6913 187.908,77.6913 193,71.5C 193.483,70.552 193.649,69.552 193.5,68.5C 194.167,68.5 194.833,68.5 195.5,68.5C 215.752,61.5959 236.418,59.7626 257.5,63C 260.167,65.3333 260.167,67.6667 257.5,70C 251.608,72.3068 245.608,74.3068 239.5,76C 244.374,83.0693 242.708,87.5693 234.5,89.5 Z"/></g>
<g><path style="opacity:0.796" fill="#a5a469" d="M 193.5,68.5 C 193.649,69.552 193.483,70.552 193,71.5C 187.908,77.6913 181.408,80.6913 173.5,80.5C 178.58,73.9557 185.247,69.9557 193.5,68.5 Z"/></g>
<g><path style="opacity:0.027" fill="#181407" d="M 361.5,70.5 C 367.072,71.121 372.072,73.121 376.5,76.5C 377.167,76.5 377.5,76.8333 377.5,77.5C 377.833,77.5 378.167,77.5 378.5,77.5C 379.167,77.5 379.5,77.8333 379.5,78.5C 380.167,78.5 380.5,78.8333 380.5,79.5C 380.842,80.3382 381.508,80.6716 382.5,80.5C 383.167,80.5 383.5,80.8333 383.5,81.5C 384.167,81.5 384.5,81.8333 384.5,82.5C 385.167,82.5 385.5,82.8333 385.5,83.5C 386.167,83.5 386.5,83.8333 386.5,84.5C 381.313,84.6141 376.313,83.1141 371.5,80C 367.051,77.9536 363.717,74.787 361.5,70.5 Z"/></g>
<g><path style="opacity:0.028" fill="#1f1a14" d="M 267.5,75.5 C 264.641,80.2641 260.641,82.2641 255.5,81.5C 255.5,80.8333 255.833,80.5 256.5,80.5C 257.338,80.1583 257.672,79.4916 257.5,78.5C 258.167,78.5 258.5,78.1667 258.5,77.5C 259.167,77.5 259.5,77.1667 259.5,76.5C 260.167,76.5 260.5,76.1667 260.5,75.5C 260.833,75.5 261.167,75.5 261.5,75.5C 262.167,75.5 262.5,75.1667 262.5,74.5C 263.583,74.4606 264.583,74.1272 265.5,73.5C 266.182,74.2427 266.849,74.9094 267.5,75.5 Z"/></g>
<g><path style="opacity:0.95" fill="#f1eb8d" d="M 469.5,84.5 C 482.897,89.1149 495.397,95.4482 507,103.5C 510.888,115.19 512.388,127.19 511.5,139.5C 497.315,140.929 483.315,139.929 469.5,136.5C 469.784,134.585 469.451,132.919 468.5,131.5C 466.744,126.441 463.077,124.108 457.5,124.5C 456.833,124.5 456.5,124.167 456.5,123.5C 456.5,122.833 456.167,122.5 455.5,122.5C 455.5,121.833 455.167,121.5 454.5,121.5C 454.5,120.833 454.167,120.5 453.5,120.5C 453.5,119.833 453.167,119.5 452.5,119.5C 452.5,118.833 452.167,118.5 451.5,118.5C 451.5,117.833 451.167,117.5 450.5,117.5C 450.5,116.833 450.167,116.5 449.5,116.5C 449.5,115.833 449.167,115.5 448.5,115.5C 448.5,114.833 448.167,114.5 447.5,114.5C 446.5,114.167 445.833,113.5 445.5,112.5C 453.157,111.299 459.824,113.632 465.5,119.5C 466.478,119.023 467.311,118.357 468,117.5C 468.519,113.985 468.186,110.652 467,107.5C 471.651,105.45 476.151,103.117 480.5,100.5C 474.153,97.4745 470.486,92.4745 469.5,85.5C 469.5,85.1667 469.5,84.8333 469.5,84.5 Z"/></g>
<g><path style="opacity:0.049" fill="#1b1608" d="M 388.5,85.5 C 393.552,85.1885 397.218,87.1885 399.5,91.5C 400.338,91.8417 400.672,92.5084 400.5,93.5C 394.39,93.7912 390.39,91.1246 388.5,85.5 Z"/></g>
<g><path style="opacity:0.019" fill="#1b1a10" d="M 233.5,90.5 C 233.833,90.5 234.167,90.5 234.5,90.5C 235.873,90.3433 237.207,90.51 238.5,91C 236.262,96.0089 232.595,97.8422 227.5,96.5C 227.5,95.8333 227.833,95.5 228.5,95.5C 229.833,95.1667 229.833,94.8333 228.5,94.5C 228.5,93.8333 228.833,93.5 229.5,93.5C 230.167,93.5 230.5,93.1667 230.5,92.5C 231.492,92.6716 232.158,92.3382 232.5,91.5C 233.167,91.5 233.5,91.1667 233.5,90.5 Z"/></g>
<g><path style="opacity:0.034" fill="#181707" d="M 402.5,93.5 C 404.099,93.2322 405.432,93.5655 406.5,94.5C 407.492,94.3284 408.158,94.6618 408.5,95.5C 411.37,96.4333 413.704,98.1 415.5,100.5C 409.506,101.997 404.506,100.164 400.5,95C 401.416,94.7216 402.082,94.2216 402.5,93.5 Z"/></g>
<g><path style="opacity:0.023" fill="#212016" d="M 226.5,97.5 C 221.039,105.404 213.706,109.07 204.5,108.5C 205.167,108.5 205.5,108.167 205.5,107.5C 206.167,107.5 206.5,107.167 206.5,106.5C 207.167,106.5 207.5,106.167 207.5,105.5C 207.833,105.5 208.167,105.5 208.5,105.5C 209.167,105.5 209.5,105.167 209.5,104.5C 210.167,104.5 210.5,104.167 210.5,103.5C 210.833,103.5 211.167,103.5 211.5,103.5C 212.167,103.5 212.5,103.167 212.5,102.5C 212.833,102.5 213.167,102.5 213.5,102.5C 214.167,102.5 214.5,102.167 214.5,101.5C 218.285,99.5715 222.285,98.2382 226.5,97.5 Z"/></g>
<g><path style="opacity:0.022" fill="#0f1203" d="M 417.5,101.5 C 418.833,101.5 420.167,101.5 421.5,101.5C 422.167,101.5 422.5,101.833 422.5,102.5C 422.833,102.5 423.167,102.5 423.5,102.5C 424.167,102.5 424.5,102.833 424.5,103.5C 425.167,103.5 425.5,103.833 425.5,104.5C 427.727,105.401 428.727,107.067 428.5,109.5C 422.353,109.95 418.686,107.283 417.5,101.5 Z"/></g>
<g><path style="opacity:0.017" fill="#15140c" d="M 201.5,109.5 C 203.532,110.478 205.198,111.978 206.5,114C 198.699,119.21 190.366,122.044 181.5,122.5C 182.167,122.5 182.5,122.167 182.5,121.5C 183.167,121.5 183.5,121.167 183.5,120.5C 184.167,120.5 184.5,120.167 184.5,119.5C 185.167,119.5 185.5,119.167 185.5,118.5C 186.167,118.5 186.5,118.167 186.5,117.5C 187.492,117.672 188.158,117.338 188.5,116.5C 189.167,116.5 189.5,116.167 189.5,115.5C 190.492,115.672 191.158,115.338 191.5,114.5C 192.167,114.5 192.5,114.167 192.5,113.5C 194.216,111.975 196.216,110.975 198.5,110.5C 199.209,109.596 200.209,109.263 201.5,109.5 Z"/></g>
<g><path style="opacity:0.026" fill="#121105" d="M 445.5,112.5 C 445.833,113.5 446.5,114.167 447.5,114.5C 448.167,114.5 448.5,114.833 448.5,115.5C 449.167,115.5 449.5,115.833 449.5,116.5C 450.167,116.5 450.5,116.833 450.5,117.5C 451.167,117.5 451.5,117.833 451.5,118.5C 452.167,118.5 452.5,118.833 452.5,119.5C 453.167,119.5 453.5,119.833 453.5,120.5C 454.167,120.5 454.5,120.833 454.5,121.5C 455.167,121.5 455.5,121.833 455.5,122.5C 456.167,122.5 456.5,122.833 456.5,123.5C 448.508,123.668 442.174,120.334 437.5,113.5C 439.948,112.527 442.615,112.194 445.5,112.5 Z"/></g>
<g><path style="opacity:0.074" fill="#0d0904" d="M 421.5,293.5 C 422.579,239.115 421.246,184.782 417.5,130.5C 418.241,125.564 420.074,125.23 423,129.5C 426.745,135.148 428.912,141.315 429.5,148C 424.167,193 424.167,238 429.5,283C 430.027,289.584 427.36,293.084 421.5,293.5 Z"/></g>
<g><path style="opacity:0.039" fill="#0f1007" d="M 457.5,124.5 C 463.077,124.108 466.744,126.441 468.5,131.5C 469.451,132.919 469.784,134.585 469.5,136.5C 464.507,133.507 460.507,129.507 457.5,124.5 Z"/></g>
<g><path style="opacity:0.255" fill="#bab06b" d="M 379.5,196.5 C 373.981,200.731 367.648,202.398 360.5,201.5C 360.5,200.167 360.5,198.833 360.5,197.5C 360.5,176.5 360.5,155.5 360.5,134.5C 348.833,134.5 337.167,134.5 325.5,134.5C 334.084,131.33 343.084,129.664 352.5,129.5C 356.818,130.082 361.151,130.415 365.5,130.5C 365.827,152.409 365.494,174.242 364.5,196C 369.489,196.499 374.489,196.666 379.5,196.5 Z"/></g>
<g><path style="opacity:0.88" fill="#e1ce67" d="M 325.5,134.5 C 337.167,134.5 348.833,134.5 360.5,134.5C 360.5,155.5 360.5,176.5 360.5,197.5C 358.193,190.145 357.027,182.478 357,174.5C 356.5,162.505 356.333,150.505 356.5,138.5C 348.167,138.5 339.833,138.5 331.5,138.5C 331.5,189.167 331.5,239.833 331.5,290.5C 339.833,290.5 348.167,290.5 356.5,290.5C 356.5,269.5 356.5,248.5 356.5,227.5C 359.5,227.5 362.5,227.5 365.5,227.5C 366.998,235.538 366.831,243.538 365,251.5C 364.5,265.829 364.333,280.163 364.5,294.5C 350.5,294.5 336.5,294.5 322.5,294.5C 322.5,241.167 322.5,187.833 322.5,134.5C 323.5,134.5 324.5,134.5 325.5,134.5 Z"/></g>
<g><path style="opacity:0.145" fill="#867f4c" d="M 384.5,132.5 C 384.5,133.167 384.5,133.833 384.5,134.5C 384.167,152.845 384.5,171.179 385.5,189.5C 388.974,190.011 392.307,190.844 395.5,192C 392.301,194.598 388.635,196.098 384.5,196.5C 377.927,175.065 377.927,153.732 384.5,132.5 Z"/></g>
<g><path style="opacity:0.999" fill="#f4e163" d="M 384.5,134.5 C 389.844,134.334 395.177,134.501 400.5,135C 405.493,136.277 410.493,137.444 415.5,138.5C 418.323,187.844 418.156,237.177 415,286.5C 412.546,288.441 410.713,290.775 409.5,293.5C 401.167,293.5 392.833,293.5 384.5,293.5C 385.706,268.037 384.373,242.704 380.5,217.5C 378.901,217.232 377.568,217.566 376.5,218.5C 372.267,218.539 368.267,219.205 364.5,220.5C 361.5,220.5 358.5,220.5 355.5,220.5C 353.621,220.607 353.288,220.107 354.5,219C 357.968,217.03 361.301,214.864 364.5,212.5C 362.1,209.241 360.767,205.574 360.5,201.5C 367.648,202.398 373.981,200.731 379.5,196.5C 381.167,196.5 382.833,196.5 384.5,196.5C 388.635,196.098 392.301,194.598 395.5,192C 392.307,190.844 388.974,190.011 385.5,189.5C 384.5,171.179 384.167,152.845 384.5,134.5 Z M 376.5,218.5 C 372.764,219.989 368.764,220.656 364.5,220.5C 368.267,219.205 372.267,218.539 376.5,218.5 Z"/></g>
<g><path style="opacity:0.919" fill="#c9c475" d="M 299.5,134.5 C 304.42,133.881 308.253,135.547 311,139.5C 312.955,162.458 313.788,185.458 313.5,208.5C 311.836,207.051 311.002,205.051 311,202.5C 308.417,182.166 305.917,161.833 303.5,141.5C 276.532,139.816 249.532,139.149 222.5,139.5C 222.5,189.5 222.5,239.5 222.5,289.5C 231.833,289.5 241.167,289.5 250.5,289.5C 250.5,271.833 250.5,254.167 250.5,236.5C 246.484,237.1 242.984,236.1 240,233.5C 239.251,232.365 239.417,231.365 240.5,230.5C 246.19,227.856 252.19,226.856 258.5,227.5C 257.47,228.552 256.803,229.886 256.5,231.5C 259.826,252.094 260.326,272.761 258,293.5C 249.925,300.968 240.425,303.802 229.5,302C 225.755,301.698 222.422,300.531 219.5,298.5C 219.5,245.167 219.5,191.833 219.5,138.5C 246.041,134.995 272.707,133.662 299.5,134.5 Z M 262.5,151.5 C 265.5,151.5 268.5,151.5 271.5,151.5C 273.206,169.93 270.373,187.597 263,204.5C 260.787,203.198 258.454,202.198 256,201.5C 254.899,197.448 254.399,193.281 254.5,189C 254.931,177.803 255.764,166.636 257,155.5C 258.5,153.531 260.333,152.198 262.5,151.5 Z"/></g>
<g><path style="opacity:0.997" fill="#f4de5a" d="M 313.5,208.5 C 313.376,210.582 312.376,212.082 310.5,213C 307.243,214.043 303.91,214.543 300.5,214.5C 298.585,214.216 296.919,214.549 295.5,215.5C 293.708,215.366 292.042,215.699 290.5,216.5C 289.209,216.263 288.209,216.596 287.5,217.5C 287.167,217.5 286.833,217.5 286.5,217.5C 285.209,217.263 284.209,217.596 283.5,218.5C 280.084,218.528 277.084,219.528 274.5,221.5C 273.209,221.263 272.209,221.596 271.5,222.5C 269.447,222.402 267.78,223.069 266.5,224.5C 265.508,224.328 264.842,224.662 264.5,225.5C 263.833,225.5 263.167,225.5 262.5,225.5C 261.508,225.328 260.842,225.662 260.5,226.5C 260.5,226.833 260.5,227.167 260.5,227.5C 259.833,227.5 259.167,227.5 258.5,227.5C 252.19,226.856 246.19,227.856 240.5,230.5C 239.417,231.365 239.251,232.365 240,233.5C 242.984,236.1 246.484,237.1 250.5,236.5C 250.5,254.167 250.5,271.833 250.5,289.5C 241.167,289.5 231.833,289.5 222.5,289.5C 222.5,239.5 222.5,189.5 222.5,139.5C 249.532,139.149 276.532,139.816 303.5,141.5C 305.917,161.833 308.417,182.166 311,202.5C 311.002,205.051 311.836,207.051 313.5,208.5 Z M 262.5,151.5 C 260.333,152.198 258.5,153.531 257,155.5C 255.764,166.636 254.931,177.803 254.5,189C 254.399,193.281 254.899,197.448 256,201.5C 258.454,202.198 260.787,203.198 263,204.5C 270.373,187.597 273.206,169.93 271.5,151.5C 268.5,151.5 265.5,151.5 262.5,151.5 Z"/></g>
<g><path style="opacity:1" fill="#f1ca3b" d="M 360.5,197.5 C 360.5,198.833 360.5,200.167 360.5,201.5C 360.767,205.574 362.1,209.241 364.5,212.5C 361.301,214.864 357.968,217.03 354.5,219C 353.288,220.107 353.621,220.607 355.5,220.5C 355.5,220.833 355.5,221.167 355.5,221.5C 352.715,220.916 351.048,221.916 350.5,224.5C 349.167,225.167 349.167,225.833 350.5,226.5C 352.265,227.461 354.265,227.795 356.5,227.5C 356.5,248.5 356.5,269.5 356.5,290.5C 348.167,290.5 339.833,290.5 331.5,290.5C 331.5,239.833 331.5,189.167 331.5,138.5C 339.833,138.5 348.167,138.5 356.5,138.5C 356.333,150.505 356.5,162.505 357,174.5C 357.027,182.478 358.193,190.145 360.5,197.5 Z"/></g>
<g><path style="opacity:0.043" fill="#a7a361" d="M 299.5,134.5 C 272.707,133.662 246.041,134.995 219.5,138.5C 219.5,191.833 219.5,245.167 219.5,298.5C 217.836,245.506 216.836,192.173 216.5,138.5C 214.435,138.047 212.768,137.047 211.5,135.5C 212.025,134.808 212.692,134.308 213.5,134C 242.353,129.175 271.02,129.342 299.5,134.5 Z"/></g>
<g><path style="opacity:0.127" fill="#777556" d="M 545.5,150.5 C 521.5,150.5 497.5,150.5 473.5,150.5C 473.5,162.5 473.5,174.5 473.5,186.5C 465.244,180.574 462.411,172.574 465,162.5C 465.591,158.118 467.091,154.118 469.5,150.5C 488.306,146.726 507.306,145.56 526.5,147C 533.097,147.485 539.431,148.651 545.5,150.5 Z"/></g>
<g><path style="opacity:0.94" fill="#f7ea6e" d="M 133.5,150.5 C 135.598,151.935 137.931,153.102 140.5,154C 146.491,154.499 152.491,154.666 158.5,154.5C 159.552,164.47 156.552,172.97 149.5,180C 108.006,180.954 66.6728,181.787 25.5,182.5C 20.7559,180.025 16.5893,176.692 13,172.5C 8.23601,166.611 3.73601,160.611 -0.5,154.5C -0.5,153.5 -0.5,152.5 -0.5,151.5C 44.1705,150.267 88.8371,149.933 133.5,150.5 Z"/></g>
<g><path style="opacity:0.563" fill="#ccc782" d="M 25.5,182.5 C 66.6728,181.787 108.006,180.954 149.5,180C 156.552,172.97 159.552,164.47 158.5,154.5C 152.491,154.666 146.491,154.499 140.5,154C 137.931,153.102 135.598,151.935 133.5,150.5C 145.493,149.189 157.493,149.189 169.5,150.5C 172.413,162.036 171.747,173.369 167.5,184.5C 120.097,187.647 72.764,186.981 25.5,182.5 Z"/></g>
<g><path style="opacity:0.87" fill="#f7ef9c" d="M 634.5,153.5 C 634.5,155.5 634.5,157.5 634.5,159.5C 632.628,161.604 630.295,162.937 627.5,163.5C 627.03,162.307 626.03,161.64 624.5,161.5C 598.044,156.621 571.377,154.454 544.5,155C 523.47,155.767 502.47,156.934 481.5,158.5C 476.234,164.335 476.234,170.169 481.5,176C 523.552,180.222 565.552,182.389 607.5,182.5C 562.972,186.794 518.306,188.127 473.5,186.5C 473.5,174.5 473.5,162.5 473.5,150.5C 497.5,150.5 521.5,150.5 545.5,150.5C 575.27,149.051 604.937,150.051 634.5,153.5 Z"/></g>
<g><path style="opacity:1" fill="#f8dd4d" d="M 52.5,154.5 C 75.8792,154.139 99.2125,154.973 122.5,157C 129.203,163.674 137.203,167.674 146.5,169C 105.814,177.597 64.8141,179.764 23.5,175.5C 18.8719,169.537 13.8719,163.87 8.5,158.5C 23.2856,156.89 37.9522,155.556 52.5,154.5 Z"/></g>
<g><path style="opacity:0.993" fill="#ecd668" d="M 627.5,163.5 C 623.874,170.642 618.874,176.809 612.5,182C 610.866,182.494 609.199,182.66 607.5,182.5C 565.552,182.389 523.552,180.222 481.5,176C 476.234,170.169 476.234,164.335 481.5,158.5C 502.47,156.934 523.47,155.767 544.5,155C 571.377,154.454 598.044,156.621 624.5,161.5C 626.03,161.64 627.03,162.307 627.5,163.5 Z"/></g>
<g><path style="opacity:0.975" fill="#c5c080" d="M 417.5,130.5 C 421.246,184.782 422.579,239.115 421.5,293.5C 417.5,293.5 413.5,293.5 409.5,293.5C 410.713,290.775 412.546,288.441 415,286.5C 418.156,237.177 418.323,187.844 415.5,138.5C 410.493,137.444 405.493,136.277 400.5,135C 395.177,134.501 389.844,134.334 384.5,134.5C 384.5,133.833 384.5,133.167 384.5,132.5C 385.36,130.386 387.027,129.22 389.5,129C 398.997,126.784 408.33,127.284 417.5,130.5 Z"/></g>
<g><path style="opacity:0.242" fill="#908858" d="M 162.5,232.5 C 162.5,220.5 162.5,208.5 162.5,196.5C 154.5,196.5 146.5,196.5 138.5,196.5C 134.5,196.5 130.5,196.5 126.5,196.5C 100.979,196.143 75.646,196.81 50.5,198.5C 43.8716,197.133 40.5383,199.8 40.5,206.5C 35.9641,205.06 32.9641,202.06 31.5,197.5C 35.6343,195.882 39.9676,195.049 44.5,195C 85.639,191.286 126.639,191.119 167.5,194.5C 171.916,205.657 172.416,216.99 169,228.5C 167.362,230.734 165.195,232.067 162.5,232.5 Z"/></g>
<g><path style="opacity:0.35" fill="#948c62" d="M 591.5,209.5 C 591.5,205.167 591.5,200.833 591.5,196.5C 552.167,196.5 512.833,196.5 473.5,196.5C 473.5,208.5 473.5,220.5 473.5,232.5C 470.514,232.008 468.181,230.508 466.5,228C 463.5,217.33 464,206.83 468,196.5C 469.098,195.033 470.598,194.199 472.5,194C 515.167,192 557.833,192 600.5,194C 601.624,194.249 602.624,194.749 603.5,195.5C 599.822,200.506 595.822,205.173 591.5,209.5 Z"/></g>
<g><path style="opacity:0.909" fill="#d8cf72" d="M 126.5,196.5 C 101.346,197.896 76.0126,198.562 50.5,198.5C 75.646,196.81 100.979,196.143 126.5,196.5 Z"/></g>
<g><path style="opacity:0.961" fill="#f8ef7d" d="M 126.5,196.5 C 130.5,196.5 134.5,196.5 138.5,196.5C 145.982,197.492 153.648,197.825 161.5,197.5C 161.5,209.167 161.5,220.833 161.5,232.5C 153.479,232.343 145.479,232.677 137.5,233.5C 112.792,233.007 88.125,231.84 63.5,230C 57.0485,223.218 50.2152,216.718 43,210.5C 42.3378,209.016 41.5045,207.683 40.5,206.5C 40.5383,199.8 43.8716,197.133 50.5,198.5C 76.0126,198.562 101.346,197.896 126.5,196.5 Z"/></g>
<g><path style="opacity:0.579" fill="#beb568" d="M 138.5,196.5 C 146.5,196.5 154.5,196.5 162.5,196.5C 162.5,208.5 162.5,220.5 162.5,232.5C 162.167,232.5 161.833,232.5 161.5,232.5C 161.5,220.833 161.5,209.167 161.5,197.5C 153.648,197.825 145.982,197.492 138.5,196.5 Z"/></g>
<g><path style="opacity:0.98" fill="#f2e67d" d="M 591.5,209.5 C 585.684,216.816 579.35,223.65 572.5,230C 539.532,232.545 506.532,233.378 473.5,232.5C 473.5,220.5 473.5,208.5 473.5,196.5C 512.833,196.5 552.167,196.5 591.5,196.5C 591.5,200.833 591.5,205.167 591.5,209.5 Z"/></g>
<g><path style="opacity:1" fill="#f8e355" d="M 81.5,200.5 C 101.755,199.536 121.422,202.37 140.5,209C 115.658,222.934 88.9914,228.101 60.5,224.5C 59.5631,216.074 55.5631,209.574 48.5,205C 59.6958,203.88 70.6958,202.38 81.5,200.5 Z"/></g>
<g><path style="opacity:0.007" fill="#171408" d="M 300.5,214.5 C 300.918,215.222 301.584,215.722 302.5,216C 289.648,222.785 275.981,226.618 261.5,227.5C 261.5,226.833 261.167,226.5 260.5,226.5C 260.842,225.662 261.508,225.328 262.5,225.5C 263.167,226.833 263.833,226.833 264.5,225.5C 265.492,225.672 266.158,225.338 266.5,224.5C 268.553,224.598 270.22,223.931 271.5,222.5C 272.791,222.737 273.791,222.404 274.5,221.5C 277.785,221.072 280.785,220.072 283.5,218.5C 284.791,218.737 285.791,218.404 286.5,217.5C 286.833,217.5 287.167,217.5 287.5,217.5C 288.791,217.737 289.791,217.404 290.5,216.5C 292.042,215.699 293.708,215.366 295.5,215.5C 296.919,214.549 298.585,214.216 300.5,214.5 Z"/></g>
<g><path style="opacity:0.004" fill="#161007" d="M 376.5,218.5 C 377.832,227.809 378.499,237.476 378.5,247.5C 378.333,257.167 378.167,266.833 378,276.5C 375.874,258.901 375.041,241.234 375.5,223.5C 372.436,223.144 369.769,223.977 367.5,226C 361.843,226.499 356.176,226.666 350.5,226.5C 350.5,225.833 350.5,225.167 350.5,224.5C 352.113,223.308 353.78,222.308 355.5,221.5C 358.713,221.81 361.713,221.477 364.5,220.5C 368.764,220.656 372.764,219.989 376.5,218.5 Z"/></g>
<g><path style="opacity:0.004" fill="#161407" d="M 260.5,227.5 C 260.833,227.5 261.167,227.5 261.5,227.5C 261.315,228.17 260.981,228.17 260.5,227.5 Z"/></g>
<g><path style="opacity:0.389" fill="#afab6c" d="M 161.5,279.5 C 161.5,267.5 161.5,255.5 161.5,243.5C 136.528,241.687 111.861,243.02 87.5,247.5C 86.7611,247.369 86.0944,247.536 85.5,248C 90.7951,252.119 94.4618,257.285 96.5,263.5C 96.5,265.833 96.5,268.167 96.5,270.5C 87.2104,262.946 79.0437,254.279 72,244.5C 71.4092,243.517 71.7425,242.85 73,242.5C 104.104,239.193 135.27,238.693 166.5,241C 171.886,252.145 172.719,263.645 169,275.5C 166.815,277.54 164.315,278.874 161.5,279.5 Z"/></g>
<g><path style="opacity:0.542" fill="#a5a476" d="M 558.5,248.5 C 557.737,247.732 556.737,247.232 555.5,247C 528.267,243.829 500.933,242.662 473.5,243.5C 473.5,255.5 473.5,267.5 473.5,279.5C 467.897,278.055 465.064,274.388 465,268.5C 463.721,259.17 464.888,250.17 468.5,241.5C 496.471,239.048 524.471,238.882 552.5,241C 556.804,241.031 560.804,242.031 564.5,244C 562.886,246.127 560.886,247.627 558.5,248.5 Z"/></g>
<g><path style="opacity:0.888" fill="#f1ed84" d="M 161.5,279.5 C 138.883,282.398 117.217,279.398 96.5,270.5C 96.5,268.167 96.5,265.833 96.5,263.5C 97.4682,265.607 97.8016,267.941 97.5,270.5C 117.5,270.5 137.5,270.5 157.5,270.5C 157.5,262.833 157.5,255.167 157.5,247.5C 134.167,247.5 110.833,247.5 87.5,247.5C 111.861,243.02 136.528,241.687 161.5,243.5C 161.5,255.5 161.5,267.5 161.5,279.5 Z"/></g>
<g><path style="opacity:0.972" fill="#f5ec83" d="M 558.5,248.5 C 548.406,264.063 534.406,274.563 516.5,280C 502.12,282.048 487.786,281.881 473.5,279.5C 473.5,267.5 473.5,255.5 473.5,243.5C 500.933,242.662 528.267,243.829 555.5,247C 556.737,247.232 557.737,247.732 558.5,248.5 Z"/></g>
<g><path style="opacity:1" fill="#f6e760" d="M 87.5,247.5 C 110.833,247.5 134.167,247.5 157.5,247.5C 157.5,255.167 157.5,262.833 157.5,270.5C 137.5,270.5 117.5,270.5 97.5,270.5C 97.8016,267.941 97.4682,265.607 96.5,263.5C 94.4618,257.285 90.7951,252.119 85.5,248C 86.0944,247.536 86.7611,247.369 87.5,247.5 Z"/></g>
<g><path style="opacity:0.5" fill="#a6aa7d" d="M 498.5,325.5 C 504.94,314.399 507.607,302.399 506.5,289.5C 492.205,288.354 478.705,291.02 466,297.5C 465.617,296.944 465.117,296.611 464.5,296.5C 464.345,291.977 466.345,288.811 470.5,287C 484.142,284.885 497.808,284.385 511.5,285.5C 512.616,297.94 510.949,309.94 506.5,321.5C 503.807,322.847 501.14,324.18 498.5,325.5 Z"/></g>
<g><path style="opacity:0.956" fill="#e5df75" d="M 179.5,301.5 C 185.66,308.751 193.326,313.751 202.5,316.5C 204.167,316.5 205.833,316.5 207.5,316.5C 208.5,319.167 209.5,321.833 210.5,324.5C 204.373,323.919 198.539,324.919 193,327.5C 190.178,325.347 187.344,323.181 184.5,321C 182.19,320.503 179.857,320.337 177.5,320.5C 177.547,329.76 181.213,337.26 188.5,343C 191.257,343.782 193.757,343.282 196,341.5C 198.476,347.412 200.642,353.412 202.5,359.5C 202.5,359.833 202.5,360.167 202.5,360.5C 177.63,349.477 153.297,337.311 129.5,324C 127.155,319.458 125.655,314.625 125,309.5C 124.5,302.842 124.334,296.175 124.5,289.5C 140.003,288.083 155.336,289.25 170.5,293C 173.369,296.038 176.369,298.871 179.5,301.5 Z"/></g>
<g><path style="opacity:0.974" fill="#e6da73" d="M 498.5,325.5 C 459.047,349.563 418.38,371.563 376.5,391.5C 377.663,387.992 379.663,384.992 382.5,382.5C 386.613,378.881 391.113,375.881 396,373.5C 412.299,347.308 406.132,339.641 377.5,350.5C 379.817,346.518 382.817,343.185 386.5,340.5C 388.683,336.741 392.017,335.075 396.5,335.5C 404.127,333.853 410.794,330.353 416.5,325C 418.708,324.809 420.708,324.309 422.5,323.5C 422.5,323.167 422.5,322.833 422.5,322.5C 423.492,322.672 424.158,322.338 424.5,321.5C 424.833,321.5 425.167,321.5 425.5,321.5C 427.25,320.341 428.25,318.674 428.5,316.5C 428.937,314.926 429.937,313.759 431.5,313C 435.767,312.811 439.767,311.977 443.5,310.5C 444.492,310.672 445.158,310.338 445.5,309.5C 446.492,309.672 447.158,309.338 447.5,308.5C 448.492,308.672 449.158,308.338 449.5,307.5C 449.833,307.5 450.167,307.5 450.5,307.5C 451.167,307.5 451.5,307.167 451.5,306.5C 452.167,306.5 452.5,306.167 452.5,305.5C 453.167,305.5 453.5,305.167 453.5,304.5C 454.167,304.5 454.5,304.167 454.5,303.5C 455.167,303.5 455.5,303.167 455.5,302.5C 457.033,300.645 458.7,298.812 460.5,297C 461.793,296.51 463.127,296.343 464.5,296.5C 465.117,296.611 465.617,296.944 466,297.5C 478.705,291.02 492.205,288.354 506.5,289.5C 507.607,302.399 504.94,314.399 498.5,325.5 Z"/></g>
<g><path style="opacity:0.012" fill="#030e1c" d="M 517.5,300.5 C 522.667,302.176 523.667,305.176 520.5,309.5C 517.924,307.122 516.924,304.122 517.5,300.5 Z"/></g>
<g><path style="opacity:0.089" fill="#121105" d="M 179.5,301.5 C 188.083,302.375 195.25,306.042 201,312.5C 201.791,313.745 202.291,315.078 202.5,316.5C 193.326,313.751 185.66,308.751 179.5,301.5 Z"/></g>
<g><path style="opacity:0.013" fill="#101104" d="M 455.5,302.5 C 454.833,302.5 454.5,302.833 454.5,303.5C 453.833,303.5 453.5,303.833 453.5,304.5C 453.5,305.167 453.167,305.5 452.5,305.5C 451.833,305.5 451.5,305.833 451.5,306.5C 451.5,307.167 451.167,307.5 450.5,307.5C 450.167,306.167 449.833,306.167 449.5,307.5C 448.508,307.328 447.842,307.662 447.5,308.5C 446.508,308.328 445.842,308.662 445.5,309.5C 444.508,309.328 443.842,309.662 443.5,310.5C 441.801,310.66 440.134,310.494 438.5,310C 442.962,305.868 448.129,303.035 454,301.5C 454.765,301.57 455.265,301.903 455.5,302.5 Z"/></g>
<g><path style="opacity:0.02" fill="#171808" d="M 428.5,316.5 C 428.25,318.674 427.25,320.341 425.5,321.5C 425.167,320.167 424.833,320.167 424.5,321.5C 423.508,321.328 422.842,321.662 422.5,322.5C 416.326,321.822 416.326,319.988 422.5,317C 424.473,316.505 426.473,316.338 428.5,316.5 Z"/></g>
<g><path style="opacity:0.077" fill="#18180d" d="M 207.5,316.5 C 220.604,318.541 230.937,324.875 238.5,335.5C 232.101,331.968 225.434,328.968 218.5,326.5C 218.5,325.833 218.167,325.5 217.5,325.5C 215.194,325.007 212.861,324.674 210.5,324.5C 209.5,321.833 208.5,319.167 207.5,316.5 Z"/></g>
<g><path style="opacity:0.992" fill="#e9da5c" d="M 210.5,324.5 C 212.861,324.674 215.194,325.007 217.5,325.5C 218.167,325.5 218.5,325.833 218.5,326.5C 225.434,328.968 232.101,331.968 238.5,335.5C 245.934,335.884 251.934,338.884 256.5,344.5C 256.328,345.492 256.662,346.158 257.5,346.5C 257.5,347.167 257.833,347.5 258.5,347.5C 258.5,348.167 258.833,348.5 259.5,348.5C 259.842,349.338 260.508,349.672 261.5,349.5C 265.391,350.222 269.391,351.056 273.5,352C 274.71,353.039 275.71,354.206 276.5,355.5C 279.806,358.14 282.806,361.14 285.5,364.5C 285.38,365.586 284.713,366.253 283.5,366.5C 271.514,364.174 259.514,361.84 247.5,359.5C 232.527,363.412 217.527,363.412 202.5,359.5C 200.642,353.412 198.476,347.412 196,341.5C 193.757,343.282 191.257,343.782 188.5,343C 181.213,337.26 177.547,329.76 177.5,320.5C 179.857,320.337 182.19,320.503 184.5,321C 187.344,323.181 190.178,325.347 193,327.5C 198.539,324.919 204.373,323.919 210.5,324.5 Z"/></g>
<g><path style="opacity:0.354" fill="#252312" d="M 422.5,323.5 C 420.708,324.309 418.708,324.809 416.5,325C 410.794,330.353 404.127,333.853 396.5,335.5C 398.257,330.575 401.59,327.075 406.5,325C 411.754,323.729 417.087,323.229 422.5,323.5 Z"/></g>
<g><path style="opacity:0.152" fill="#191407" d="M 386.5,340.5 C 382.817,343.185 379.817,346.518 377.5,350.5C 372.267,352.142 366.933,353.475 361.5,354.5C 367.483,346 375.817,341.333 386.5,340.5 Z"/></g>
<g><path style="opacity:0.007" fill="#1c1914" d="M 256.5,344.5 C 260.421,343.945 263.754,345.445 266.5,349C 264.866,349.494 263.199,349.66 261.5,349.5C 261.158,348.662 260.492,348.328 259.5,348.5C 258.833,348.5 258.5,348.167 258.5,347.5C 257.833,347.5 257.5,347.167 257.5,346.5C 257.672,345.508 257.338,344.842 256.5,344.5 Z"/></g>
<g><path style="opacity:0.99" fill="#f0ce48" d="M 376.5,391.5 C 361.767,402.539 345.767,411.539 328.5,418.5C 322.449,417.717 316.449,416.217 310.5,414C 306.738,410.321 303.571,406.154 301,401.5C 291.845,392.005 280.678,386.339 267.5,384.5C 272.425,380.372 278.092,377.872 284.5,377C 281.445,375.818 278.445,374.484 275.5,373C 277.744,372.094 280.077,371.594 282.5,371.5C 293.464,374.99 304.464,378.324 315.5,381.5C 324.297,378.605 331.964,373.939 338.5,367.5C 339.167,367.167 339.833,366.833 340.5,366.5C 347.951,364.613 354.284,360.946 359.5,355.5C 360.167,355.167 360.833,354.833 361.5,354.5C 366.933,353.475 372.267,352.142 377.5,350.5C 406.132,339.641 412.299,347.308 396,373.5C 391.113,375.881 386.613,378.881 382.5,382.5C 379.663,384.992 377.663,387.992 376.5,391.5 Z"/></g>
<g><path style="opacity:0.149" fill="#1b180c" d="M 359.5,355.5 C 354.284,360.946 347.951,364.613 340.5,366.5C 341.242,363.191 342.909,360.357 345.5,358C 350.119,355.638 354.785,354.804 359.5,355.5 Z"/></g>
<g><path style="opacity:0.075" fill="#191509" d="M 276.5,355.5 C 287.328,356.747 296.328,361.413 303.5,369.5C 303.265,370.097 302.765,370.43 302,370.5C 296.168,369.176 290.668,367.176 285.5,364.5C 282.806,361.14 279.806,358.14 276.5,355.5 Z"/></g>
<g><path style="opacity:0.949" fill="#e0cb5b" d="M 202.5,360.5 C 202.5,360.167 202.5,359.833 202.5,359.5C 217.527,363.412 232.527,363.412 247.5,359.5C 259.514,361.84 271.514,364.174 283.5,366.5C 284.713,366.253 285.38,365.586 285.5,364.5C 290.668,367.176 296.168,369.176 302,370.5C 302.765,370.43 303.265,370.097 303.5,369.5C 307.165,369.502 310.165,370.835 312.5,373.5C 312.957,376.406 313.957,379.072 315.5,381.5C 304.464,378.324 293.464,374.99 282.5,371.5C 280.077,371.594 277.744,372.094 275.5,373C 278.445,374.484 281.445,375.818 284.5,377C 278.092,377.872 272.425,380.372 267.5,384.5C 280.678,386.339 291.845,392.005 301,401.5C 303.571,406.154 306.738,410.321 310.5,414C 316.449,416.217 322.449,417.717 328.5,418.5C 324.447,422.86 319.447,425.027 313.5,425C 276.209,404.021 239.209,382.521 202.5,360.5 Z"/></g>
<g><path style="opacity:0.102" fill="#1e1608" d="M 338.5,367.5 C 331.964,373.939 324.297,378.605 315.5,381.5C 313.957,379.072 312.957,376.406 312.5,373.5C 321.174,370.159 329.841,368.159 338.5,367.5 Z"/></g>
<g><path style="opacity:0.878" fill="#e9c82b" d="M 471.5,448.5 C 464.164,448.059 457.664,450.059 452,454.5C 450.991,456.025 450.491,457.692 450.5,459.5C 449.527,461.948 449.194,464.615 449.5,467.5C 456.167,467.5 462.833,467.5 469.5,467.5C 469.5,471.5 469.5,475.5 469.5,479.5C 462.833,479.5 456.167,479.5 449.5,479.5C 449.5,489.833 449.5,500.167 449.5,510.5C 448.357,519.498 447.024,528.498 445.5,537.5C 442.833,537.5 440.167,537.5 437.5,537.5C 435.172,527.507 433.505,517.507 432.5,507.5C 432.5,499.5 432.5,491.5 432.5,483.5C 430.167,483.5 427.833,483.5 425.5,483.5C 422.19,482.396 419.19,480.729 416.5,478.5C 416.58,472.35 419.58,468.35 425.5,466.5C 425.833,466.5 426.167,466.5 426.5,466.5C 427.791,466.737 428.791,466.404 429.5,465.5C 429.833,465.5 430.167,465.5 430.5,465.5C 430.833,465.5 431.167,465.5 431.5,465.5C 432.492,465.672 433.158,465.338 433.5,464.5C 433.5,464.167 433.5,463.833 433.5,463.5C 434.167,463.5 434.5,463.167 434.5,462.5C 435.833,462.5 436.5,461.833 436.5,460.5C 436.743,436.263 448.41,427.929 471.5,435.5C 474.091,439.799 474.091,444.132 471.5,448.5 Z"/></g>
<g><path style="opacity:0.836" fill="#ecca2c" d="M 154.5,478.5 C 154.725,525.589 132.058,542.423 86.5,529C 85.3759,528.161 84.7092,526.994 84.5,525.5C 83.433,519.198 82.5996,512.864 82,506.5C 81.0194,488.016 80.186,469.683 79.5,451.5C 78.3123,442.532 82.1456,437.532 91,436.5C 117.689,442.39 138.856,456.39 154.5,478.5 Z M 97.5,456.5 C 114.141,458.551 126.307,466.885 134,481.5C 136.383,489.337 137.05,497.337 136,505.5C 134.878,507.624 133.378,509.457 131.5,511C 121.124,517.593 109.791,520.093 97.5,518.5C 97.5,497.833 97.5,477.167 97.5,456.5 Z"/></g>
<g><path style="opacity:0.903" fill="#efcd2d" d="M 349.5,455.5 C 341.252,456.469 332.918,456.802 324.5,456.5C 323.083,465.955 321.75,475.288 320.5,484.5C 319.506,494.319 319.173,504.319 319.5,514.5C 327.833,514.5 336.167,514.5 344.5,514.5C 344.5,518.5 344.5,522.5 344.5,526.5C 326.51,527.594 308.51,528.094 290.5,528C 286.59,523.925 286.59,519.925 290.5,516C 295.689,514.202 301.022,513.369 306.5,513.5C 307.497,493.34 307.83,473.007 307.5,452.5C 300.833,452.5 294.167,452.5 287.5,452.5C 287.5,451.833 287.167,451.5 286.5,451.5C 286.5,447.5 286.5,443.5 286.5,439.5C 305.889,439.106 325.223,439.94 344.5,442C 348.548,445.6 350.215,450.1 349.5,455.5 Z"/></g>
<g><path style="opacity:0.103" fill="#060605" d="M 471.5,448.5 C 483.842,451.855 489.175,459.855 487.5,472.5C 486.833,472.5 486.5,472.833 486.5,473.5C 476.827,486.039 474.993,499.705 481,514.5C 498.258,535.81 515.592,535.81 533,514.5C 535.02,502.586 535.853,490.586 535.5,478.5C 538.833,478.5 542.167,478.5 545.5,478.5C 545.5,495.833 545.5,513.167 545.5,530.5C 551.69,530.823 557.69,530.49 563.5,529.5C 562.958,515.067 563.792,500.733 566,486.5C 574.62,477.489 580.454,478.989 583.5,491C 587.486,491.499 591.486,491.666 595.5,491.5C 595.182,486.968 595.515,482.634 596.5,478.5C 606.78,482.95 612.113,490.783 612.5,502C 612.036,508.878 611.203,515.711 610,522.5C 603.556,525.776 599.056,530.776 596.5,537.5C 546.167,537.5 495.833,537.5 445.5,537.5C 447.024,528.498 448.357,519.498 449.5,510.5C 450.494,500.681 450.827,490.681 450.5,480.5C 457.167,480.5 463.833,480.5 470.5,480.5C 470.5,475.833 470.5,471.167 470.5,466.5C 463.833,466.5 457.167,466.5 450.5,466.5C 450.5,464.167 450.5,461.833 450.5,459.5C 450.491,457.692 450.991,456.025 452,454.5C 457.664,450.059 464.164,448.059 471.5,448.5 Z M 505.5,479.5 C 521.631,484.72 525.464,494.72 517,509.5C 505.139,515.811 497.306,512.644 493.5,500C 495.701,492.474 499.701,485.64 505.5,479.5 Z"/></g>
<g><path style="opacity:0.122" fill="#090806" d="M 79.5,451.5 C 80.186,469.683 81.0194,488.016 82,506.5C 82.5996,512.864 83.433,519.198 84.5,525.5C 84.7092,526.994 85.3759,528.161 86.5,529C 132.058,542.423 154.725,525.589 154.5,478.5C 158.269,478.244 161.936,478.577 165.5,479.5C 161.023,493.378 161.523,507.044 167,520.5C 174.253,528.945 183.42,532.112 194.5,530C 203.984,528.548 212.984,525.715 221.5,521.5C 223.184,516.311 223.851,510.978 223.5,505.5C 212.756,507.745 202.756,511.745 193.5,517.5C 188.393,515.78 183.726,513.28 179.5,510C 188.285,503.621 197.951,498.954 208.5,496C 214.341,491.476 218.007,485.642 219.5,478.5C 221.5,478.5 223.5,478.5 225.5,478.5C 234.071,493.978 241.904,509.978 249,526.5C 253.222,530.052 258.055,531.219 263.5,530C 269.463,510.278 276.13,490.778 283.5,471.5C 282.415,466.752 279.415,464.085 274.5,463.5C 277.527,458.473 281.527,454.473 286.5,451.5C 287.167,451.5 287.5,451.833 287.5,452.5C 293.645,453.49 299.978,453.823 306.5,453.5C 306.5,473.5 306.5,493.5 306.5,513.5C 301.022,513.369 295.689,514.202 290.5,516C 286.59,519.925 286.59,523.925 290.5,528C 308.51,528.094 326.51,527.594 344.5,526.5C 344.5,522.5 344.5,518.5 344.5,514.5C 336.684,513.508 328.684,513.174 320.5,513.5C 320.5,503.833 320.5,494.167 320.5,484.5C 321.75,475.288 323.083,465.955 324.5,456.5C 332.918,456.802 341.252,456.469 349.5,455.5C 352.5,457.167 354.833,459.5 356.5,462.5C 355.214,483.805 355.714,505.139 358,526.5C 359.993,527.914 362.16,528.914 364.5,529.5C 367.287,530.477 370.287,530.81 373.5,530.5C 373.784,528.585 373.451,526.919 372.5,525.5C 370.188,508.084 375.355,493.084 388,480.5C 392.884,496.802 395.717,513.469 396.5,530.5C 402.206,530.829 407.872,530.495 413.5,529.5C 410.123,512.346 408.79,495.013 409.5,477.5C 411.717,478.369 414.05,478.702 416.5,478.5C 419.19,480.729 422.19,482.396 425.5,483.5C 427.265,484.461 429.265,484.795 431.5,484.5C 431.175,492.352 431.508,500.018 432.5,507.5C 433.505,517.507 435.172,527.507 437.5,537.5C 313.167,537.5 188.833,537.5 64.5,537.5C 63.3122,514.535 63.8122,491.535 66,468.5C 68.1464,460.865 72.6464,455.198 79.5,451.5 Z M 97.5,456.5 C 97.5,477.167 97.5,497.833 97.5,518.5C 109.791,520.093 121.124,517.593 131.5,511C 133.378,509.457 134.878,507.624 136,505.5C 137.05,497.337 136.383,489.337 134,481.5C 126.307,466.885 114.141,458.551 97.5,456.5 Z"/></g>
<g><path style="opacity:0.027" fill="#0c0b06" d="M 436.5,460.5 C 436.5,461.833 435.833,462.5 434.5,462.5C 433.833,462.5 433.5,462.833 433.5,463.5C 432.167,463.833 432.167,464.167 433.5,464.5C 433.158,465.338 432.492,465.672 431.5,465.5C 431.167,464.167 430.833,464.167 430.5,465.5C 430.167,465.5 429.833,465.5 429.5,465.5C 428.209,465.263 427.209,465.596 426.5,466.5C 426.167,466.5 425.833,466.5 425.5,466.5C 425.917,460.008 429.083,455.342 435,452.5C 435.183,455.365 435.683,458.031 436.5,460.5 Z"/></g>
<g><path style="opacity:0.212" fill="#645616" d="M 287.5,452.5 C 294.167,452.5 300.833,452.5 307.5,452.5C 307.83,473.007 307.497,493.34 306.5,513.5C 306.5,493.5 306.5,473.5 306.5,453.5C 299.978,453.823 293.645,453.49 287.5,452.5 Z"/></g>
<g><path style="opacity:0.878" fill="#eac82c" d="M 356.5,462.5 C 364.039,462.02 370.205,464.687 375,470.5C 381.537,463.958 389.371,461.791 398.5,464C 405.13,466.098 408.797,470.598 409.5,477.5C 408.79,495.013 410.123,512.346 413.5,529.5C 407.872,530.495 402.206,530.829 396.5,530.5C 395.717,513.469 392.884,496.802 388,480.5C 375.355,493.084 370.188,508.084 372.5,525.5C 372.5,526.833 372.5,528.167 372.5,529.5C 369.833,529.5 367.167,529.5 364.5,529.5C 362.16,528.914 359.993,527.914 358,526.5C 355.714,505.139 355.214,483.805 356.5,462.5 Z"/></g>
<g><path style="opacity:0.88" fill="#e4c32b" d="M 219.5,478.5 C 218.007,485.642 214.341,491.476 208.5,496C 197.951,498.954 188.285,503.621 179.5,510C 183.726,513.28 188.393,515.78 193.5,517.5C 202.756,511.745 212.756,507.745 223.5,505.5C 223.851,510.978 223.184,516.311 221.5,521.5C 212.984,525.715 203.984,528.548 194.5,530C 183.42,532.112 174.253,528.945 167,520.5C 161.523,507.044 161.023,493.378 165.5,479.5C 166.543,476.944 168.21,474.777 170.5,473C 175.217,468.973 180.551,465.973 186.5,464C 193.215,462.752 199.548,463.752 205.5,467C 210.622,470.29 215.289,474.123 219.5,478.5 Z"/></g>
<g><path style="opacity:0.872" fill="#e8c72b" d="M 247.5,478.5 C 248.188,482.584 249.188,486.584 250.5,490.5C 250.5,491.167 250.833,491.5 251.5,491.5C 251.5,491.833 251.5,492.167 251.5,492.5C 251.5,493.167 251.833,493.5 252.5,493.5C 252.5,493.833 252.5,494.167 252.5,494.5C 252.5,495.167 252.833,495.5 253.5,495.5C 253.5,495.833 253.5,496.167 253.5,496.5C 253.5,497.167 253.833,497.5 254.5,497.5C 254.833,497.5 255.167,497.5 255.5,497.5C 256.167,497.5 256.5,497.167 256.5,496.5C 257.167,496.5 257.5,496.167 257.5,495.5C 258.338,495.158 258.672,494.492 258.5,493.5C 260.074,491.898 260.741,489.898 260.5,487.5C 261.434,486.432 261.768,485.099 261.5,483.5C 262.434,482.432 262.768,481.099 262.5,479.5C 264.583,472.747 268.583,467.414 274.5,463.5C 279.415,464.085 282.415,466.752 283.5,471.5C 276.13,490.778 269.463,510.278 263.5,530C 258.055,531.219 253.222,530.052 249,526.5C 241.904,509.978 234.071,493.978 225.5,478.5C 232.485,458.548 239.818,458.548 247.5,478.5 Z"/></g>
<g><path style="opacity:0.829" fill="#e8c82c" d="M 535.5,478.5 C 535.853,490.586 535.02,502.586 533,514.5C 515.592,535.81 498.258,535.81 481,514.5C 474.993,499.705 476.827,486.039 486.5,473.5C 487.167,473.5 487.5,473.167 487.5,472.5C 505.499,458.887 521.499,460.887 535.5,478.5 Z M 505.5,479.5 C 499.701,485.64 495.701,492.474 493.5,500C 497.306,512.644 505.139,515.811 517,509.5C 525.464,494.72 521.631,484.72 505.5,479.5 Z"/></g>
<g><path style="opacity:0.803" fill="#ebc92c" d="M 596.5,478.5 C 595.515,482.634 595.182,486.968 595.5,491.5C 591.486,491.666 587.486,491.499 583.5,491C 580.454,478.989 574.62,477.489 566,486.5C 563.792,500.733 562.958,515.067 563.5,529.5C 557.833,529.5 552.167,529.5 546.5,529.5C 546.83,512.325 546.497,495.325 545.5,478.5C 546.028,463.234 552.028,460.567 563.5,470.5C 572.002,464.366 581.336,462.533 591.5,465C 595.548,468.6 597.215,473.1 596.5,478.5 Z"/></g>
<g><path style="opacity:0.031" fill="#100e07" d="M 247.5,478.5 C 252.595,478.221 257.595,478.555 262.5,479.5C 262.768,481.099 262.434,482.432 261.5,483.5C 261.768,485.099 261.434,486.432 260.5,487.5C 260.741,489.898 260.074,491.898 258.5,493.5C 258.672,494.492 258.338,495.158 257.5,495.5C 257.5,496.167 257.167,496.5 256.5,496.5C 255.833,496.5 255.5,496.833 255.5,497.5C 255.167,497.5 254.833,497.5 254.5,497.5C 253.833,497.5 253.5,497.167 253.5,496.5C 253.5,496.167 253.5,495.833 253.5,495.5C 252.833,495.5 252.5,495.167 252.5,494.5C 252.5,494.167 252.5,493.833 252.5,493.5C 251.833,493.5 251.5,493.167 251.5,492.5C 251.5,492.167 251.5,491.833 251.5,491.5C 250.833,491.5 250.5,491.167 250.5,490.5C 249.188,486.584 248.188,482.584 247.5,478.5 Z"/></g>
<g><path style="opacity:0.254" fill="#524812" d="M 450.5,459.5 C 450.5,461.833 450.5,464.167 450.5,466.5C 457.167,466.5 463.833,466.5 470.5,466.5C 470.5,471.167 470.5,475.833 470.5,480.5C 463.833,480.5 457.167,480.5 450.5,480.5C 450.827,490.681 450.494,500.681 449.5,510.5C 449.5,500.167 449.5,489.833 449.5,479.5C 456.167,479.5 462.833,479.5 469.5,479.5C 469.5,475.5 469.5,471.5 469.5,467.5C 462.833,467.5 456.167,467.5 449.5,467.5C 449.194,464.615 449.527,461.948 450.5,459.5 Z"/></g>
<g><path style="opacity:0.251" fill="#6c5d16" d="M 545.5,478.5 C 546.497,495.325 546.83,512.325 546.5,529.5C 552.167,529.5 557.833,529.5 563.5,529.5C 557.69,530.49 551.69,530.823 545.5,530.5C 545.5,513.167 545.5,495.833 545.5,478.5 Z"/></g>
<g><path style="opacity:0.204" fill="#2b250c" d="M 425.5,483.5 C 427.833,483.5 430.167,483.5 432.5,483.5C 432.5,491.5 432.5,499.5 432.5,507.5C 431.508,500.018 431.175,492.352 431.5,484.5C 429.265,484.795 427.265,484.461 425.5,483.5 Z"/></g>
<g><path style="opacity:0.482" fill="#b89e24" d="M 320.5,484.5 C 320.5,494.167 320.5,503.833 320.5,513.5C 328.684,513.174 336.684,513.508 344.5,514.5C 336.167,514.5 327.833,514.5 319.5,514.5C 319.173,504.319 319.506,494.319 320.5,484.5 Z"/></g>
<g><path style="opacity:0.46" fill="#736318" d="M 372.5,525.5 C 373.451,526.919 373.784,528.585 373.5,530.5C 370.287,530.81 367.287,530.477 364.5,529.5C 367.167,529.5 369.833,529.5 372.5,529.5C 372.5,528.167 372.5,526.833 372.5,525.5 Z"/></g>
</svg>
