<?xml version="1.0" encoding="UTF-8"?>
<!DOCTYPE svg PUBLIC "-//W3C//DTD SVG 1.1//EN" "http://www.w3.org/Graphics/SVG/1.1/DTD/svg11.dtd">
<svg xmlns="http://www.w3.org/2000/svg" version="1.1" width="150px" height="60px" style="shape-rendering:geometricPrecision; text-rendering:geometricPrecision; image-rendering:optimizeQuality; fill-rule:evenodd; clip-rule:evenodd" xmlns:xlink="http://www.w3.org/1999/xlink">
<g><path style="opacity:0.995" fill="#e11338" d="M -0.5,-0.5 C 49.5,-0.5 99.5,-0.5 149.5,-0.5C 149.5,19.5 149.5,39.5 149.5,59.5C 99.5,59.5 49.5,59.5 -0.5,59.5C -0.5,39.5 -0.5,19.5 -0.5,-0.5 Z"/></g>
<g><path style="opacity:1" fill="#dd2b3d" d="M 48.5,21.5 C 48.5,22.1667 48.5,22.8333 48.5,23.5C 48.5,24.5 48.5,25.5 48.5,26.5C 51.8333,26.5 55.1667,26.5 58.5,26.5C 58.5,25.5 58.5,24.5 58.5,23.5C 59.2679,24.2625 59.7679,25.2625 60,26.5C 60.3333,26.1667 60.6667,25.8333 61,25.5C 61.3333,28.8333 61.6667,32.1667 62,35.5C 62.1805,32.3054 62.6805,29.3054 63.5,26.5C 63.5,29.8333 63.5,33.1667 63.5,36.5C 62.0337,37.347 61.2004,38.6803 61,40.5C 58.1642,37.0698 57.9975,33.4031 60.5,29.5C 59.1353,26.8753 57.802,26.8753 56.5,29.5C 54.0521,28.5269 51.3854,28.1936 48.5,28.5C 48.5,29.8333 48.5,31.1667 48.5,32.5C 48.5,32.8333 48.5,33.1667 48.5,33.5C 48.5,34.8333 48.5,36.1667 48.5,37.5C 49.5,37.5 50.5,37.5 51.5,37.5C 51.7845,39.4147 51.4511,41.0813 50.5,42.5C 50.728,40.6453 50.0613,39.8119 48.5,40C 45.2065,43.6395 41.5399,46.8061 37.5,49.5C 33.5709,46.3834 29.9042,43.0501 26.5,39.5C 24.4687,39.0276 22.8021,38.0276 21.5,36.5C 23.0418,37.3007 24.7085,37.634 26.5,37.5C 26.5,36.5 26.5,35.5 26.5,34.5C 24.5,34.5 22.5,34.5 20.5,34.5C 20.5,33.8333 20.5,33.1667 20.5,32.5C 22.5,32.5 24.5,32.5 26.5,32.5C 26.5,31.5 26.5,30.5 26.5,29.5C 26.5,29.1667 26.5,28.8333 26.5,28.5C 26.5,28.1667 26.5,27.8333 26.5,27.5C 26.5,26.5 26.5,25.5 26.5,24.5C 22.8333,24.5 19.1667,24.5 15.5,24.5C 19.3123,23.6762 23.3123,23.1762 27.5,23C 26.2625,22.7679 25.2625,22.2679 24.5,21.5C 28.796,18.2147 33.1294,14.8814 37.5,11.5C 41.8111,14.1453 45.4777,17.4786 48.5,21.5 Z"/></g>
<g><path style="opacity:1" fill="#f3dd69" d="M 50.5,18.5 C 50.7148,20.1788 50.0481,21.1788 48.5,21.5C 45.4777,17.4786 41.8111,14.1453 37.5,11.5C 33.1294,14.8814 28.796,18.2147 24.5,21.5C 23.4265,20.7494 23.2599,19.7494 24,18.5C 28.6487,14.6856 33.1487,10.6856 37.5,6.5C 41.8795,10.55 46.2129,14.55 50.5,18.5 Z"/></g>
<g><path style="opacity:1" fill="#fef2f4" d="M 63.5,36.5 C 63.5,33.1667 63.5,29.8333 63.5,26.5C 65.7768,16.7738 70.6101,15.1071 78,21.5C 79.0086,23.0249 79.5086,24.6916 79.5,26.5C 76.3732,26.5145 73.7065,25.5145 71.5,23.5C 69.9707,23.5288 68.804,24.1955 68,25.5C 67.3333,28.8333 67.3333,32.1667 68,35.5C 69.4659,37.3249 71.2992,37.8249 73.5,37C 75.0341,34.6193 77.0341,34.1193 79.5,35.5C 78.0533,41.4693 74.3866,43.9693 68.5,43C 66.1743,41.1951 64.5077,39.0284 63.5,36.5 Z"/></g>
<g><path style="opacity:1" fill="#e26a5c" d="M 50.5,18.5 C 51.4345,19.5676 51.7678,20.901 51.5,22.5C 54.0593,22.1984 56.3926,22.5318 58.5,23.5C 55.1667,23.5 51.8333,23.5 48.5,23.5C 48.5,22.8333 48.5,22.1667 48.5,21.5C 50.0481,21.1788 50.7148,20.1788 50.5,18.5 Z"/></g>
<g><path style="opacity:1" fill="#eee26d" d="M 48.5,23.5 C 51.8333,23.5 55.1667,23.5 58.5,23.5C 58.5,24.5 58.5,25.5 58.5,26.5C 55.1667,26.5 51.8333,26.5 48.5,26.5C 48.5,25.5 48.5,24.5 48.5,23.5 Z"/></g>
<g><path style="opacity:1" fill="#fef5f6" d="M 89.5,23.5 C 89.7828,24.2891 90.2828,24.9558 91,25.5C 91.7096,24.0267 92.8762,23.3601 94.5,23.5C 94.5,29.8333 94.5,36.1667 94.5,42.5C 92.602,41.9035 90.9354,41.9035 89.5,42.5C 87.1831,43.9416 85.0164,43.6082 83,41.5C 81.0559,36.14 81.0559,30.8066 83,25.5C 84.6213,22.6793 86.788,22.0126 89.5,23.5 Z"/></g>
<g><path style="opacity:1" fill="#fef4f6" d="M 98.5,43.5 C 98.5,36.8333 98.5,30.1667 98.5,23.5C 100.143,23.4802 101.476,24.1468 102.5,25.5C 103.107,25.3764 103.44,25.0431 103.5,24.5C 103.811,23.5222 104.478,22.8555 105.5,22.5C 106.474,24.7427 106.808,27.076 106.5,29.5C 105.178,29.33 104.011,29.6634 103,30.5C 102.501,34.8206 102.334,39.1539 102.5,43.5C 101.167,43.5 99.8333,43.5 98.5,43.5 Z"/></g>
<g><path style="opacity:1" fill="#fefbfb" d="M 108.5,43.5 C 108.5,36.8333 108.5,30.1667 108.5,23.5C 110.451,23.2267 111.951,23.8934 113,25.5C 113.717,24.9558 114.217,24.2891 114.5,23.5C 115.117,23.3893 115.617,23.056 116,22.5C 116.497,24.8098 116.663,27.1432 116.5,29.5C 115.178,29.33 114.011,29.6634 113,30.5C 112.501,34.8206 112.334,39.1539 112.5,43.5C 111.167,43.5 109.833,43.5 108.5,43.5 Z"/></g>
<g><path style="opacity:1" fill="#feeff1" d="M 122.5,22.5 C 126.493,22.2447 129.326,23.9114 131,27.5C 131.667,31.1667 131.667,34.8333 131,38.5C 129.287,43.038 126.12,44.538 121.5,43C 115.999,35.8528 116.333,29.0194 122.5,22.5 Z"/></g>
<g><path style="opacity:1" fill="#fdeef0" d="M 136.5,22.5 C 141.638,21.9701 144.305,24.3035 144.5,29.5C 142.071,29.1156 139.737,28.449 137.5,27.5C 137.281,28.675 137.614,29.675 138.5,30.5C 144.089,31.7061 145.922,35.0394 144,40.5C 140.714,44.4851 137.381,44.4851 134,40.5C 133.51,39.2068 133.343,37.8734 133.5,36.5C 135.57,36.4486 137.403,37.1153 139,38.5C 139.5,38.1667 140,37.8333 140.5,37.5C 138.462,35.7236 136.296,34.0569 134,32.5C 132.861,28.5789 133.695,25.2456 136.5,22.5 Z"/></g>
<g><path style="opacity:1" fill="#f6abb8" d="M 89.5,42.5 C 90.9354,41.9035 92.602,41.9035 94.5,42.5C 94.5,36.1667 94.5,29.8333 94.5,23.5C 92.8762,23.3601 91.7096,24.0267 91,25.5C 90.2828,24.9558 89.7828,24.2891 89.5,23.5C 91.3792,22.6586 93.3792,22.3253 95.5,22.5C 95.5,29.5 95.5,36.5 95.5,43.5C 93.3792,43.6747 91.3792,43.3414 89.5,42.5 Z"/></g>
<g><path style="opacity:1" fill="#f08a9d" d="M 103.5,24.5 C 103.44,25.0431 103.107,25.3764 102.5,25.5C 101.476,24.1468 100.143,23.4802 98.5,23.5C 98.5,30.1667 98.5,36.8333 98.5,43.5C 97.5088,36.6866 97.1755,29.6866 97.5,22.5C 99.8863,22.2587 101.886,22.9254 103.5,24.5 Z"/></g>
<g><path style="opacity:1" fill="#fae45e" d="M 15.5,24.5 C 19.1667,24.5 22.8333,24.5 26.5,24.5C 26.5,25.5 26.5,26.5 26.5,27.5C 23.1016,27.8204 19.7683,27.487 16.5,26.5C 16.1373,25.8165 15.8039,25.1499 15.5,24.5 Z"/></g>
<g><path style="opacity:1" fill="#e59862" d="M 26.5,28.5 C 26.5,28.8333 26.5,29.1667 26.5,29.5C 23.6146,29.1936 20.9479,29.5269 18.5,30.5C 17.9569,30.44 17.6236,30.1067 17.5,29.5C 20.4281,28.5159 23.4281,28.1826 26.5,28.5 Z"/></g>
<g><path style="opacity:1" fill="#f2d84f" d="M 44.5,21.5 C 44.8293,27.5368 44.4959,33.5368 43.5,39.5C 42.8333,36.5 42.1667,33.5 41.5,30.5C 41.0935,33.9391 40.0935,36.9391 38.5,39.5C 38.1707,33.4632 38.5041,27.4632 39.5,21.5C 40.1667,23.8333 40.8333,26.1667 41.5,28.5C 41.9385,25.7051 42.9385,23.3717 44.5,21.5 Z"/></g>
<g><path style="opacity:1" fill="#f0de7a" d="M 56.5,29.5 C 54.6143,32.0994 51.9476,33.0994 48.5,32.5C 48.5,31.1667 48.5,29.8333 48.5,28.5C 51.3854,28.1936 54.0521,28.5269 56.5,29.5 Z"/></g>
<g><path style="opacity:1" fill="#ead65a" d="M 33.5,31.5 C 33.0984,34.4766 32.0984,37.1433 30.5,39.5C 30.5,33.5 30.5,27.5 30.5,21.5C 32.5,21.5 34.5,21.5 36.5,21.5C 36.6646,24.5184 36.498,27.5184 36,30.5C 35.3292,31.2524 34.4959,31.5858 33.5,31.5 Z"/></g>
<g><path style="opacity:1" fill="#e76e49" d="M 32.5,23.5 C 33.6935,23.9704 34.3601,24.9704 34.5,26.5C 34.1667,27.5 33.8333,28.5 33.5,29.5C 32.5344,27.604 32.2011,25.604 32.5,23.5 Z"/></g>
<g><path style="opacity:1" fill="#e21f3c" d="M 86.5,28.5 C 87.8221,28.33 88.9887,28.6634 90,29.5C 90.6667,32.1667 90.6667,34.8333 90,37.5C 88.4126,38.727 87.0793,38.3937 86,36.5C 85.2782,33.7395 85.4448,31.0728 86.5,28.5 Z"/></g>
<g><path style="opacity:1" fill="#e9526c" d="M 114.5,23.5 C 114.217,24.2891 113.717,24.9558 113,25.5C 111.951,23.8934 110.451,23.2267 108.5,23.5C 108.5,30.1667 108.5,36.8333 108.5,43.5C 107.509,36.6866 107.175,29.6866 107.5,22.5C 109.95,22.298 112.283,22.6314 114.5,23.5 Z"/></g>
<g><path style="opacity:1" fill="#faed64" d="M 26.5,29.5 C 26.5,30.5 26.5,31.5 26.5,32.5C 24.5,32.5 22.5,32.5 20.5,32.5C 19.5,32.1667 18.8333,31.5 18.5,30.5C 20.9479,29.5269 23.6146,29.1936 26.5,29.5 Z"/></g>
<g><path style="opacity:1" fill="#e2243f" d="M 123.5,28.5 C 126.465,28.73 127.798,30.3966 127.5,33.5C 127.51,37.0109 126.01,38.3442 123,37.5C 122.264,34.408 122.431,31.408 123.5,28.5 Z"/></g>
<g><path style="opacity:1" fill="#f8f069" d="M 20.5,34.5 C 22.5,34.5 24.5,34.5 26.5,34.5C 26.5,35.5 26.5,36.5 26.5,37.5C 24.7085,37.634 23.0418,37.3007 21.5,36.5C 21.1667,35.8333 20.8333,35.1667 20.5,34.5 Z"/></g>
<g><path style="opacity:1" fill="#d0574c" d="M 44.5,21.5 C 45.4902,27.6446 45.8235,33.9779 45.5,40.5C 42.9407,40.8016 40.6074,40.4682 38.5,39.5C 40.0935,36.9391 41.0935,33.9391 41.5,30.5C 42.1667,33.5 42.8333,36.5 43.5,39.5C 44.4959,33.5368 44.8293,27.5368 44.5,21.5 Z"/></g>
<g><path style="opacity:1" fill="#db8f53" d="M 33.5,31.5 C 33.5,34.5 33.5,37.5 33.5,40.5C 32.209,40.7373 31.209,40.404 30.5,39.5C 32.0984,37.1433 33.0984,34.4766 33.5,31.5 Z"/></g>
<g><path style="opacity:1" fill="#f0df81" d="M 48.5,33.5 C 54.6249,32.5459 55.6249,33.8793 51.5,37.5C 50.5,37.5 49.5,37.5 48.5,37.5C 48.5,36.1667 48.5,34.8333 48.5,33.5 Z"/></g>
<g><path style="opacity:1" fill="#f3d659" d="M 26.5,39.5 C 29.9042,43.0501 33.5709,46.3834 37.5,49.5C 41.5399,46.8061 45.2065,43.6395 48.5,40C 50.0613,39.8119 50.728,40.6453 50.5,42.5C 46.2288,46.2688 42.0621,50.2688 38,54.5C 33.6667,50.8333 29.3333,47.1667 25,43.5C 24.1558,41.5372 24.6558,40.2039 26.5,39.5 Z"/></g>
</svg>
